<?xml version="1.0" encoding="UTF-8" standalone="no"?>
<!DOCTYPE svg PUBLIC "-//W3C//DTD SVG 1.1//EN"
 "http://www.w3.org/Graphics/SVG/1.1/DTD/svg11.dtd">
<!-- Generated by graphviz version 2.40.1 (20161225.0304)
 -->
<!-- Title: sampleschema.staffs Pages: 1 -->
<svg width="982pt" height="616pt"
 viewBox="0.00 0.00 982.37 615.56" xmlns="http://www.w3.org/2000/svg" xmlns:xlink="http://www.w3.org/1999/xlink">
<g id="graph0" class="graph" transform="scale(1 1) rotate(0) translate(4 611.5628)">
<title>sampleschema.staffs</title>
<polygon fill="#ffffff" stroke="transparent" points="-4,4 -4,-611.5628 978.3738,-611.5628 978.3738,4 -4,4"/>
<!-- sampleschema.staffs -->
<g id="node1" class="node">
<title>sampleschema.staffs</title>
<polygon fill="#efefef" stroke="transparent" points="101,-317.5628 101,-363.5628 411,-363.5628 411,-317.5628 101,-317.5628"/>
<polygon fill="none" stroke="#000000" points="101,-317.5628 101,-363.5628 411,-363.5628 411,-317.5628 101,-317.5628"/>
<text text-anchor="start" x="107.7006" y="-341.3628" font-family="Arial Bold" font-size="18.00" fill="#000000">sampleschema.staffs</text>
<text text-anchor="start" x="276.7314" y="-341.3628" font-family="Arial" font-size="14.00" fill="#000000">    </text>
<text text-anchor="start" x="310.9362" y="-341.3628" font-family="Arial" font-size="14.00" fill="#666666">[BASE TABLE]</text>
<text text-anchor="start" x="241.4932" y="-326.9628" font-family="Arial" font-size="14.00" fill="#333333">職員</text>
<polygon fill="none" stroke="#000000" points="101,-287.5628 101,-317.5628 411,-317.5628 411,-287.5628 101,-287.5628"/>
<text text-anchor="start" x="108" y="-298.9628" font-family="Arial" font-size="14.00" fill="#000000">staff_id </text>
<text text-anchor="start" x="157.0168" y="-298.9628" font-family="Arial" font-size="14.00" fill="#666666">[integer]</text>
<text text-anchor="start" x="207.5862" y="-298.9628" font-family="Arial" font-size="14.00" fill="#000000"> 職員ID</text>
<polygon fill="none" stroke="#000000" points="101,-257.5628 101,-287.5628 411,-287.5628 411,-257.5628 101,-257.5628"/>
<text text-anchor="start" x="108" y="-268.9628" font-family="Arial" font-size="14.00" fill="#000000">role_id </text>
<text text-anchor="start" x="153.8948" y="-268.9628" font-family="Arial" font-size="14.00" fill="#666666">[integer]</text>
<text text-anchor="start" x="204.4642" y="-268.9628" font-family="Arial" font-size="14.00" fill="#000000"> ロールID</text>
<polygon fill="none" stroke="#000000" stroke-width="3" points="99.5,-256.0628 99.5,-365.0628 412.5,-365.0628 412.5,-256.0628 99.5,-256.0628"/>
</g>
<!-- sampleschema.roles -->
<g id="node3" class="node">
<title>sampleschema.roles</title>
<polygon fill="#efefef" stroke="transparent" points="113,-86.5628 113,-132.5628 419,-132.5628 419,-86.5628 113,-86.5628"/>
<polygon fill="none" stroke="#000000" points="113,-86.5628 113,-132.5628 419,-132.5628 419,-86.5628 113,-86.5628"/>
<text text-anchor="start" x="119.7076" y="-110.3628" font-family="Arial Bold" font-size="18.00" fill="#000000">sampleschema.roles</text>
<text text-anchor="start" x="284.7244" y="-110.3628" font-family="Arial" font-size="14.00" fill="#000000">    </text>
<text text-anchor="start" x="318.9292" y="-110.3628" font-family="Arial" font-size="14.00" fill="#666666">[BASE TABLE]</text>
<text text-anchor="start" x="239.1746" y="-95.9628" font-family="Arial" font-size="14.00" fill="#333333">ロール</text>
<polygon fill="none" stroke="#000000" points="113,-56.5628 113,-86.5628 419,-86.5628 419,-56.5628 113,-56.5628"/>
<text text-anchor="start" x="120" y="-67.9628" font-family="Arial" font-size="14.00" fill="#000000">role_id    </text>
<text text-anchor="start" x="196.209" y="-67.9628" font-family="Arial" font-size="14.00" fill="#666666">[integer]</text>
<text text-anchor="start" x="246.7784" y="-67.9628" font-family="Arial" font-size="14.00" fill="#000000"> ロールID</text>
</g>
<!-- sampleschema.staffs&#45;&gt;sampleschema.roles -->
<g id="edge2" class="edge">
<title>sampleschema.staffs:role_id&#45;&gt;sampleschema.roles:role_id</title>
<path fill="none" stroke="#000000" d="M256.61,-247.3854C267.0524,-166.0535 408.7386,-254.0899 462,-175.5628 476.8439,-153.6775 480.699,-75.2619 462,-56.5628 400.4031,5.034 266,30.5483 266,-56.5628"/>
<polygon fill="#000000" stroke="#000000" points="256.5983,-247.5807 251.5081,-257.2936 256.2992,-252.5718 256,-257.5628 256,-257.5628 256,-257.5628 256.2992,-252.5718 260.4919,-257.8321 256.5983,-247.5807 256.5983,-247.5807"/>
</g>
<!-- sampleschema.staff_login_histories -->
<g id="node2" class="node">
<title>sampleschema.staff_login_histories</title>
<polygon fill="#efefef" stroke="transparent" points="43,-518.5628 43,-564.5628 469,-564.5628 469,-518.5628 43,-518.5628"/>
<polygon fill="none" stroke="#000000" points="43,-518.5628 43,-564.5628 469,-564.5628 469,-518.5628 43,-518.5628"/>
<text text-anchor="start" x="49.6902" y="-542.3628" font-family="Arial Bold" font-size="18.00" fill="#000000">sampleschema.staff_login_histories</text>
<text text-anchor="start" x="334.7418" y="-542.3628" font-family="Arial" font-size="14.00" fill="#000000">    </text>
<text text-anchor="start" x="368.9466" y="-542.3628" font-family="Arial" font-size="14.00" fill="#666666">[BASE TABLE]</text>
<text text-anchor="start" x="198.0708" y="-527.9628" font-family="Arial" font-size="14.00" fill="#333333">職員ログイン履歴</text>
<polygon fill="none" stroke="#000000" points="43,-488.5628 43,-518.5628 469,-518.5628 469,-488.5628 43,-488.5628"/>
<text text-anchor="start" x="50" y="-499.9628" font-family="Arial" font-size="14.00" fill="#000000">staff_id    </text>
<text text-anchor="start" x="129.331" y="-499.9628" font-family="Arial" font-size="14.00" fill="#666666">[integer]</text>
<text text-anchor="start" x="179.9004" y="-499.9628" font-family="Arial" font-size="14.00" fill="#000000"> 職員ID</text>
</g>
<!-- sampleschema.staff_login_histories&#45;&gt;sampleschema.staffs -->
<g id="edge1" class="edge">
<title>sampleschema.staff_login_histories:staff_id&#45;&gt;sampleschema.staffs:staff_id</title>
<path fill="none" stroke="#000000" d="M256.7977,-478.2175C267.0149,-417.2063 372.5766,-472.2727 411,-409.5628 435.8453,-369.0135 458.5556,-302.5628 411,-302.5628"/>
<polygon fill="#000000" stroke="#000000" points="256.7689,-478.5924 251.5133,-488.2168 256.3845,-483.5776 256,-488.5628 256,-488.5628 256,-488.5628 256.3845,-483.5776 260.4867,-488.9088 256.7689,-478.5924 256.7689,-478.5924"/>
</g>
<!-- sampleschema.role_permissions -->
<g id="node4" class="node">
<title>sampleschema.role_permissions</title>
<polygon fill="#efefef" stroke="transparent" points="519,-317.5628 519,-363.5628 922,-363.5628 922,-317.5628 519,-317.5628"/>
<polygon fill="none" stroke="#000000" points="519,-317.5628 519,-363.5628 922,-363.5628 922,-317.5628 519,-317.5628"/>
<text text-anchor="start" x="525.7057" y="-341.3628" font-family="Arial Bold" font-size="18.00" fill="#000000">sampleschema.role_permissions</text>
<text text-anchor="start" x="787.7263" y="-341.3628" font-family="Arial" font-size="14.00" fill="#000000">    </text>
<text text-anchor="start" x="821.9311" y="-341.3628" font-family="Arial" font-size="14.00" fill="#666666">[BASE TABLE]</text>
<text text-anchor="start" x="656.5466" y="-326.9628" font-family="Arial" font-size="14.00" fill="#333333">ロール機能許可</text>
<polygon fill="none" stroke="#000000" points="519,-287.5628 519,-317.5628 922,-317.5628 922,-287.5628 519,-287.5628"/>
<text text-anchor="start" x="526" y="-298.9628" font-family="Arial" font-size="14.00" fill="#000000">functionality_id    </text>
<text text-anchor="start" x="652.7812" y="-298.9628" font-family="Arial" font-size="14.00" fill="#666666">[integer]</text>
<text text-anchor="start" x="703.3506" y="-298.9628" font-family="Arial" font-size="14.00" fill="#000000"> 機能ID</text>
<polygon fill="none" stroke="#000000" points="519,-257.5628 519,-287.5628 922,-287.5628 922,-257.5628 519,-257.5628"/>
<text text-anchor="start" x="526" y="-268.9628" font-family="Arial" font-size="14.00" fill="#000000">role_id    </text>
<text text-anchor="start" x="602.209" y="-268.9628" font-family="Arial" font-size="14.00" fill="#666666">[integer]</text>
<text text-anchor="start" x="652.7784" y="-268.9628" font-family="Arial" font-size="14.00" fill="#000000"> ロールID</text>
</g>
<!-- sampleschema.role_permissions&#45;&gt;sampleschema.roles -->
<g id="edge3" class="edge">
<title>sampleschema.role_permissions:role_id&#45;&gt;sampleschema.roles:role_id</title>
<path fill="none" stroke="#000000" d="M508.9461,-271.7945C426.1558,-258.2998 515.1732,-71.5628 419,-71.5628"/>
<polygon fill="#000000" stroke="#000000" points="509.0291,-271.8008 518.6571,-277.0497 514.0145,-272.1818 519,-272.5628 519,-272.5628 519,-272.5628 514.0145,-272.1818 519.3429,-268.0759 509.0291,-271.8008 509.0291,-271.8008"/>
</g>
<!-- sampleschema.functionalities -->
<g id="node5" class="node">
<title>sampleschema.functionalities</title>
<polygon fill="#efefef" stroke="transparent" points="533,-86.5628 533,-132.5628 909,-132.5628 909,-86.5628 533,-86.5628"/>
<polygon fill="none" stroke="#000000" points="533,-86.5628 533,-132.5628 909,-132.5628 909,-86.5628 533,-86.5628"/>
<text text-anchor="start" x="539.6967" y="-110.3628" font-family="Arial Bold" font-size="18.00" fill="#000000">sampleschema.functionalities</text>
<text text-anchor="start" x="774.7353" y="-110.3628" font-family="Arial" font-size="14.00" fill="#000000">    </text>
<text text-anchor="start" x="808.9401" y="-110.3628" font-family="Arial" font-size="14.00" fill="#666666">[BASE TABLE]</text>
<text text-anchor="start" x="702.9365" y="-95.9628" font-family="Arial" font-size="14.00" fill="#333333">機能</text>
<polygon fill="none" stroke="#000000" points="533,-56.5628 533,-86.5628 909,-86.5628 909,-56.5628 533,-56.5628"/>
<text text-anchor="start" x="540" y="-67.9628" font-family="Arial" font-size="14.00" fill="#000000">functionality_id    </text>
<text text-anchor="start" x="666.7812" y="-67.9628" font-family="Arial" font-size="14.00" fill="#666666">[integer]</text>
<text text-anchor="start" x="717.3506" y="-67.9628" font-family="Arial" font-size="14.00" fill="#000000"> 機能ID</text>
</g>
<!-- sampleschema.role_permissions&#45;&gt;sampleschema.functionalities -->
<g id="edge4" class="edge">
<title>sampleschema.role_permissions:functionality_id&#45;&gt;sampleschema.functionalities:functionality_id</title>
<path fill="none" stroke="#000000" d="M931.8403,-300.2279C978.5991,-277.3372 988.5077,-93.0705 952,-56.5628 915.7019,-20.2647 721,-5.2295 721,-56.5628"/>
<polygon fill="#000000" stroke="#000000" points="931.7299,-300.2541 920.9611,-298.1844 926.8649,-301.4084 922,-302.5628 922,-302.5628 922,-302.5628 926.8649,-301.4084 923.0389,-306.9412 931.7299,-300.2541 931.7299,-300.2541"/>
</g>
</g>
</svg>
