<?xml version="1.0" encoding="UTF-8" standalone="no"?>
<!DOCTYPE svg PUBLIC "-//W3C//DTD SVG 1.1//EN"
 "http://www.w3.org/Graphics/SVG/1.1/DTD/svg11.dtd">
<!-- Generated by graphviz version 2.40.1 (20161225.0304)
 -->
<!-- Title: sampleschema.consult_export_histories Pages: 1 -->
<svg width="2134pt" height="890pt"
 viewBox="0.00 0.00 2133.50 890.00" xmlns="http://www.w3.org/2000/svg" xmlns:xlink="http://www.w3.org/1999/xlink">
<g id="graph0" class="graph" transform="scale(1 1) rotate(0) translate(4 886)">
<title>sampleschema.consult_export_histories</title>
<polygon fill="#ffffff" stroke="transparent" points="-4,4 -4,-886 2129.5,-886 2129.5,4 -4,4"/>
<!-- sampleschema.consult_export_histories -->
<g id="node1" class="node">
<title>sampleschema.consult_export_histories</title>
<polygon fill="#efefef" stroke="transparent" points="46.5,-790 46.5,-836 507.5,-836 507.5,-790 46.5,-790"/>
<polygon fill="none" stroke="#000000" points="46.5,-790 46.5,-836 507.5,-836 507.5,-790 46.5,-790"/>
<text text-anchor="start" x="53.1861" y="-813.8" font-family="Arial Bold" font-size="18.00" fill="#000000">sampleschema.consult_export_histories</text>
<text text-anchor="start" x="373.2459" y="-813.8" font-family="Arial" font-size="14.00" fill="#000000">    </text>
<text text-anchor="start" x="407.4507" y="-813.8" font-family="Arial" font-size="14.00" fill="#666666">[BASE TABLE]</text>
<text text-anchor="start" x="229.1543" y="-799.4" font-family="Arial" font-size="14.00" fill="#333333">受診_出力履歴</text>
<polygon fill="none" stroke="#000000" points="46.5,-760 46.5,-790 507.5,-790 507.5,-760 46.5,-760"/>
<text text-anchor="start" x="53.5" y="-771.4" font-family="Arial" font-size="14.00" fill="#000000">consult_id </text>
<text text-anchor="start" x="120.4074" y="-771.4" font-family="Arial" font-size="14.00" fill="#666666">[integer]</text>
<text text-anchor="start" x="170.9768" y="-771.4" font-family="Arial" font-size="14.00" fill="#000000"> 受診ID</text>
<polygon fill="none" stroke="#000000" stroke-width="3" points="44.5,-758.5 44.5,-837.5 508.5,-837.5 508.5,-758.5 44.5,-758.5"/>
</g>
<!-- sampleschema.consult -->
<g id="node2" class="node">
<title>sampleschema.consult</title>
<polygon fill="#efefef" stroke="transparent" points="902.5,-589 902.5,-635 1226.5,-635 1226.5,-589 902.5,-589"/>
<polygon fill="none" stroke="#000000" points="902.5,-589 902.5,-635 1226.5,-635 1226.5,-589 902.5,-589"/>
<text text-anchor="start" x="909.1995" y="-612.8" font-family="Arial Bold" font-size="18.00" fill="#000000">sampleschema.consult</text>
<text text-anchor="start" x="1092.2325" y="-612.8" font-family="Arial" font-size="14.00" fill="#000000">    </text>
<text text-anchor="start" x="1126.4373" y="-612.8" font-family="Arial" font-size="14.00" fill="#666666">[BASE TABLE]</text>
<text text-anchor="start" x="1048.5512" y="-598.4" font-family="Arial" font-size="14.00" fill="#333333">受診</text>
<polygon fill="none" stroke="#000000" points="902.5,-559 902.5,-589 1226.5,-589 1226.5,-559 902.5,-559"/>
<text text-anchor="start" x="909.5" y="-570.4" font-family="Arial" font-size="14.00" fill="#000000">consult_id    </text>
<text text-anchor="start" x="1006.7216" y="-570.4" font-family="Arial" font-size="14.00" fill="#666666">[integer]</text>
<text text-anchor="start" x="1057.291" y="-570.4" font-family="Arial" font-size="14.00" fill="#000000"> 受診ID</text>
<polygon fill="none" stroke="#000000" points="902.5,-529 902.5,-559 1226.5,-559 1226.5,-529 902.5,-529"/>
<text text-anchor="start" x="909.5" y="-540.4" font-family="Arial" font-size="14.00" fill="#000000">place_schedule_id    </text>
<text text-anchor="start" x="1059.6332" y="-540.4" font-family="Arial" font-size="14.00" fill="#666666">[integer]</text>
<text text-anchor="start" x="1110.2026" y="-540.4" font-family="Arial" font-size="14.00" fill="#000000"> 会場日程ID</text>
<polygon fill="none" stroke="#000000" points="902.5,-499 902.5,-529 1226.5,-529 1226.5,-499 902.5,-499"/>
<text text-anchor="start" x="909.5" y="-510.4" font-family="Arial" font-size="14.00" fill="#000000">examinee_id    </text>
<text text-anchor="start" x="1023.0568" y="-510.4" font-family="Arial" font-size="14.00" fill="#666666">[integer]</text>
<text text-anchor="start" x="1073.6262" y="-510.4" font-family="Arial" font-size="14.00" fill="#000000"> 受診者ID</text>
</g>
<!-- sampleschema.consult_export_histories&#45;&gt;sampleschema.consult -->
<g id="edge1" class="edge">
<title>sampleschema.consult_export_histories:consult_id&#45;&gt;sampleschema.consult:consult_id</title>
<path fill="none" stroke="#000000" d="M517.5578,-773.7352C542.0693,-766.7789 535.8073,-732.8091 562.5,-714 696.0864,-619.868 739.0798,-574 902.5,-574"/>
<polygon fill="#000000" stroke="#000000" points="517.4219,-773.7522 506.9385,-770.5352 512.4609,-774.3761 507.5,-775 507.5,-775 507.5,-775 512.4609,-774.3761 508.0615,-779.4648 517.4219,-773.7522 517.4219,-773.7522"/>
</g>
<!-- sampleschema.place_schedule_id -->
<g id="node6" class="node">
<title>sampleschema.place_schedule_id</title>
<polygon fill="#efefef" stroke="transparent" points="832.5,-331 832.5,-377 1248.5,-377 1248.5,-331 832.5,-331"/>
<polygon fill="none" stroke="#000000" points="832.5,-331 832.5,-377 1248.5,-377 1248.5,-331 832.5,-331"/>
<text text-anchor="start" x="839.1816" y="-354.8" font-family="Arial Bold" font-size="18.00" fill="#000000">sampleschema.place_schedule_id</text>
<text text-anchor="start" x="1114.2504" y="-354.8" font-family="Arial" font-size="14.00" fill="#000000">    </text>
<text text-anchor="start" x="1148.4552" y="-354.8" font-family="Arial" font-size="14.00" fill="#666666">[BASE TABLE]</text>
<text text-anchor="start" x="1008.2097" y="-340.4" font-family="Arial" font-size="14.00" fill="#333333">会場日程</text>
<polygon fill="none" stroke="#000000" points="832.5,-301 832.5,-331 1248.5,-331 1248.5,-301 832.5,-301"/>
<text text-anchor="start" x="839.5" y="-312.4" font-family="Arial" font-size="14.00" fill="#000000">place_schedule_id    </text>
<text text-anchor="start" x="989.6332" y="-312.4" font-family="Arial" font-size="14.00" fill="#666666">[integer]</text>
<text text-anchor="start" x="1040.2026" y="-312.4" font-family="Arial" font-size="14.00" fill="#000000"> 会場日程ID</text>
<polygon fill="none" stroke="#000000" points="832.5,-271 832.5,-301 1248.5,-301 1248.5,-271 832.5,-271"/>
<text text-anchor="start" x="839.5" y="-282.4" font-family="Arial" font-size="14.00" fill="#000000">place_id    </text>
<text text-anchor="start" x="925.831" y="-282.4" font-family="Arial" font-size="14.00" fill="#666666">[integer]</text>
<text text-anchor="start" x="976.4004" y="-282.4" font-family="Arial" font-size="14.00" fill="#000000"> 会場ID</text>
<polygon fill="none" stroke="#000000" points="832.5,-241 832.5,-271 1248.5,-271 1248.5,-241 832.5,-241"/>
<text text-anchor="start" x="839.5" y="-252.4" font-family="Arial" font-size="14.00" fill="#000000">team_id    </text>
<text text-anchor="start" x="923.493" y="-252.4" font-family="Arial" font-size="14.00" fill="#666666">[integer]</text>
<text text-anchor="start" x="974.0624" y="-252.4" font-family="Arial" font-size="14.00" fill="#000000"> 班ID</text>
</g>
<!-- sampleschema.consult&#45;&gt;sampleschema.place_schedule_id -->
<g id="edge5" class="edge">
<title>sampleschema.consult:place_schedule_id&#45;&gt;sampleschema.place_schedule_id:place_schedule_id</title>
<path fill="none" stroke="#000000" d="M892.4943,-542.3962C866.0399,-532.7717 878.8715,-482.2145 902.5,-456 954.2565,-398.579 1196.7435,-477.421 1248.5,-420 1279.4467,-385.6664 1294.7222,-316 1248.5,-316"/>
<polygon fill="#000000" stroke="#000000" points="892.626,-542.4172 901.7878,-548.4433 897.563,-543.2086 902.5,-544 902.5,-544 902.5,-544 897.563,-543.2086 903.2122,-539.5567 892.626,-542.4172 892.626,-542.4172"/>
</g>
<!-- sampleschema.examinees -->
<g id="node9" class="node">
<title>sampleschema.examinees</title>
<polygon fill="#efefef" stroke="transparent" points="1352.5,-301 1352.5,-347 1706.5,-347 1706.5,-301 1352.5,-301"/>
<polygon fill="none" stroke="#000000" points="1352.5,-301 1352.5,-347 1706.5,-347 1706.5,-301 1352.5,-301"/>
<text text-anchor="start" x="1359.1983" y="-324.8" font-family="Arial Bold" font-size="18.00" fill="#000000">sampleschema.examinees</text>
<text text-anchor="start" x="1572.2337" y="-324.8" font-family="Arial" font-size="14.00" fill="#000000">    </text>
<text text-anchor="start" x="1606.4385" y="-324.8" font-family="Arial" font-size="14.00" fill="#666666">[BASE TABLE]</text>
<text text-anchor="start" x="1505.7693" y="-310.4" font-family="Arial" font-size="14.00" fill="#333333">受診者</text>
<polygon fill="none" stroke="#000000" points="1352.5,-271 1352.5,-301 1706.5,-301 1706.5,-271 1352.5,-271"/>
<text text-anchor="start" x="1359.5" y="-282.4" font-family="Arial" font-size="14.00" fill="#000000">examinee_id    </text>
<text text-anchor="start" x="1473.0568" y="-282.4" font-family="Arial" font-size="14.00" fill="#666666">[integer]</text>
<text text-anchor="start" x="1523.6262" y="-282.4" font-family="Arial" font-size="14.00" fill="#000000"> 受診者ID</text>
</g>
<!-- sampleschema.consult&#45;&gt;sampleschema.examinees -->
<g id="edge8" class="edge">
<title>sampleschema.consult:examinee_id&#45;&gt;sampleschema.examinees:examinee_id</title>
<path fill="none" stroke="#000000" d="M1236.6102,-513.3454C1279.0641,-507.4698 1275.9496,-463.0237 1300.5,-420 1332.161,-364.5151 1288.6174,-286 1352.5,-286"/>
<polygon fill="#000000" stroke="#000000" points="1236.4791,-513.3538 1226.2092,-509.5094 1231.4896,-513.6769 1226.5,-514 1226.5,-514 1226.5,-514 1231.4896,-513.6769 1226.7908,-518.4906 1236.4791,-513.3538 1236.4791,-513.3538"/>
</g>
<!-- sampleschema.exam_results -->
<g id="node3" class="node">
<title>sampleschema.exam_results</title>
<polygon fill="#efefef" stroke="transparent" points="614.5,-790 614.5,-836 988.5,-836 988.5,-790 614.5,-790"/>
<polygon fill="none" stroke="#000000" points="614.5,-790 614.5,-836 988.5,-836 988.5,-790 614.5,-790"/>
<text text-anchor="start" x="621.2011" y="-813.8" font-family="Arial Bold" font-size="18.00" fill="#000000">sampleschema.exam_results</text>
<text text-anchor="start" x="854.2309" y="-813.8" font-family="Arial" font-size="14.00" fill="#000000">    </text>
<text text-anchor="start" x="888.4357" y="-813.8" font-family="Arial" font-size="14.00" fill="#666666">[BASE TABLE]</text>
<text text-anchor="start" x="776.9874" y="-799.4" font-family="Arial" font-size="14.00" fill="#333333">検査結果</text>
<polygon fill="none" stroke="#000000" points="614.5,-760 614.5,-790 988.5,-790 988.5,-760 614.5,-760"/>
<text text-anchor="start" x="621.5" y="-771.4" font-family="Arial" font-size="14.00" fill="#000000">consult_id    </text>
<text text-anchor="start" x="718.7216" y="-771.4" font-family="Arial" font-size="14.00" fill="#666666">[integer]</text>
<text text-anchor="start" x="769.291" y="-771.4" font-family="Arial" font-size="14.00" fill="#000000"> 受診ID</text>
</g>
<!-- sampleschema.exam_results&#45;&gt;sampleschema.consult -->
<g id="edge2" class="edge">
<title>sampleschema.exam_results:consult_id&#45;&gt;sampleschema.consult:consult_id</title>
<path fill="none" stroke="#000000" d="M998.3086,-772.2914C1010.3438,-763.473 1000.174,-735.1124 988.5,-717 965.7632,-681.7236 925.2368,-713.2764 902.5,-678 877.4589,-639.1485 856.2778,-574 902.5,-574"/>
<polygon fill="#000000" stroke="#000000" points="998.1392,-772.3381 987.3021,-770.6624 993.3196,-773.669 988.5,-775 988.5,-775 988.5,-775 993.3196,-773.669 989.6979,-779.3376 998.1392,-772.3381 998.1392,-772.3381"/>
</g>
<!-- sampleschema.exam_item_detail_orders -->
<g id="node4" class="node">
<title>sampleschema.exam_item_detail_orders</title>
<polygon fill="#efefef" stroke="transparent" points="1093.5,-790 1093.5,-836 1562.5,-836 1562.5,-790 1093.5,-790"/>
<polygon fill="none" stroke="#000000" points="1093.5,-790 1093.5,-836 1562.5,-836 1562.5,-790 1093.5,-790"/>
<text text-anchor="start" x="1100.1919" y="-813.8" font-family="Arial Bold" font-size="18.00" fill="#000000">sampleschema.exam_item_detail_orders</text>
<text text-anchor="start" x="1428.2401" y="-813.8" font-family="Arial" font-size="14.00" fill="#000000">    </text>
<text text-anchor="start" x="1462.4449" y="-813.8" font-family="Arial" font-size="14.00" fill="#666666">[BASE TABLE]</text>
<text text-anchor="start" x="1266.5344" y="-799.4" font-family="Arial" font-size="14.00" fill="#333333">検査項目明細依頼</text>
<polygon fill="none" stroke="#000000" points="1093.5,-760 1093.5,-790 1562.5,-790 1562.5,-760 1093.5,-760"/>
<text text-anchor="start" x="1100.5" y="-771.4" font-family="Arial" font-size="14.00" fill="#000000">consult_id    </text>
<text text-anchor="start" x="1197.7216" y="-771.4" font-family="Arial" font-size="14.00" fill="#666666">[integer]</text>
<text text-anchor="start" x="1248.291" y="-771.4" font-family="Arial" font-size="14.00" fill="#000000"> 受診ID</text>
</g>
<!-- sampleschema.exam_item_detail_orders&#45;&gt;sampleschema.consult -->
<g id="edge3" class="edge">
<title>sampleschema.exam_item_detail_orders:consult_id&#45;&gt;sampleschema.consult:consult_id</title>
<path fill="none" stroke="#000000" d="M1083.5911,-772.2216C1071.2484,-763.1895 1080.5833,-734.2482 1093.5,-717 1130.4245,-667.6933 1189.5755,-727.3067 1226.5,-678 1254.2066,-641.0022 1272.7222,-574 1226.5,-574"/>
<polygon fill="#000000" stroke="#000000" points="1083.8713,-772.3001 1092.285,-779.3329 1088.6857,-773.65 1093.5,-775 1093.5,-775 1093.5,-775 1088.6857,-773.65 1094.715,-770.6671 1083.8713,-772.3001 1083.8713,-772.3001"/>
</g>
<!-- sampleschema.exam_item_orders -->
<g id="node5" class="node">
<title>sampleschema.exam_item_orders</title>
<polygon fill="#efefef" stroke="transparent" points="1666.5,-790 1666.5,-836 2082.5,-836 2082.5,-790 1666.5,-790"/>
<polygon fill="none" stroke="#000000" points="1666.5,-790 1666.5,-836 2082.5,-836 2082.5,-790 1666.5,-790"/>
<text text-anchor="start" x="1673.1996" y="-813.8" font-family="Arial Bold" font-size="18.00" fill="#000000">sampleschema.exam_item_orders</text>
<text text-anchor="start" x="1948.2324" y="-813.8" font-family="Arial" font-size="14.00" fill="#000000">    </text>
<text text-anchor="start" x="1982.4372" y="-813.8" font-family="Arial" font-size="14.00" fill="#666666">[BASE TABLE]</text>
<text text-anchor="start" x="1824.7062" y="-799.4" font-family="Arial" font-size="14.00" fill="#333333">検査項目依頼</text>
<polygon fill="none" stroke="#000000" points="1666.5,-760 1666.5,-790 2082.5,-790 2082.5,-760 1666.5,-760"/>
<text text-anchor="start" x="1673.5" y="-771.4" font-family="Arial" font-size="14.00" fill="#000000">consult_id    </text>
<text text-anchor="start" x="1770.7216" y="-771.4" font-family="Arial" font-size="14.00" fill="#666666">[integer]</text>
<text text-anchor="start" x="1821.291" y="-771.4" font-family="Arial" font-size="14.00" fill="#000000"> 受診ID</text>
</g>
<!-- sampleschema.exam_item_orders&#45;&gt;sampleschema.consult -->
<g id="edge4" class="edge">
<title>sampleschema.exam_item_orders:consult_id&#45;&gt;sampleschema.consult:consult_id</title>
<path fill="none" stroke="#000000" d="M1656.5023,-773.5064C1633.6126,-765.6528 1642.4942,-728.9339 1614.5,-714 1491.7315,-648.5074 1423.9503,-747.6643 1303.5,-678 1253.7149,-649.206 1284.0122,-574 1226.5,-574"/>
<polygon fill="#000000" stroke="#000000" points="1656.6098,-773.5223 1665.8351,-779.4506 1661.5549,-774.2612 1666.5,-775 1666.5,-775 1666.5,-775 1661.5549,-774.2612 1667.1649,-770.5494 1656.6098,-773.5223 1656.6098,-773.5223"/>
</g>
<!-- sampleschema.places -->
<g id="node7" class="node">
<title>sampleschema.places</title>
<polygon fill="#efefef" stroke="transparent" points="670.5,-73 670.5,-119 989.5,-119 989.5,-73 670.5,-73"/>
<polygon fill="none" stroke="#000000" points="670.5,-73 670.5,-119 989.5,-119 989.5,-73 670.5,-73"/>
<text text-anchor="start" x="677.2006" y="-96.8" font-family="Arial Bold" font-size="18.00" fill="#000000">sampleschema.places</text>
<text text-anchor="start" x="855.2314" y="-96.8" font-family="Arial" font-size="14.00" fill="#000000">    </text>
<text text-anchor="start" x="889.4362" y="-96.8" font-family="Arial" font-size="14.00" fill="#666666">[BASE TABLE]</text>
<text text-anchor="start" x="813.2735" y="-82.4" font-family="Arial" font-size="14.00" fill="#333333">会場</text>
<polygon fill="none" stroke="#000000" points="670.5,-43 670.5,-73 989.5,-73 989.5,-43 670.5,-43"/>
<text text-anchor="start" x="677.5" y="-54.4" font-family="Arial" font-size="14.00" fill="#000000">place_id    </text>
<text text-anchor="start" x="763.831" y="-54.4" font-family="Arial" font-size="14.00" fill="#666666">[integer]</text>
<text text-anchor="start" x="814.4004" y="-54.4" font-family="Arial" font-size="14.00" fill="#000000"> 会場ID</text>
</g>
<!-- sampleschema.place_schedule_id&#45;&gt;sampleschema.places -->
<g id="edge6" class="edge">
<title>sampleschema.place_schedule_id:place_id&#45;&gt;sampleschema.places:place_id</title>
<path fill="none" stroke="#000000" d="M822.5412,-284.4359C796.3598,-275.043 810.5099,-225.6032 832.5,-198 877.1067,-142.0073 944.8933,-217.9927 989.5,-162 1018.301,-125.8476 1035.7222,-58 989.5,-58"/>
<polygon fill="#000000" stroke="#000000" points="822.6211,-284.4484 831.8018,-290.4455 827.5605,-285.2242 832.5,-286 832.5,-286 832.5,-286 827.5605,-285.2242 833.1982,-281.5545 822.6211,-284.4484 822.6211,-284.4484"/>
</g>
<!-- sampleschema.teams -->
<g id="node8" class="node">
<title>sampleschema.teams</title>
<polygon fill="#efefef" stroke="transparent" points="1093.5,-73 1093.5,-119 1409.5,-119 1409.5,-73 1093.5,-73"/>
<polygon fill="none" stroke="#000000" points="1093.5,-73 1093.5,-119 1409.5,-119 1409.5,-73 1093.5,-73"/>
<text text-anchor="start" x="1100.2036" y="-96.8" font-family="Arial Bold" font-size="18.00" fill="#000000">sampleschema.teams</text>
<text text-anchor="start" x="1275.2284" y="-96.8" font-family="Arial" font-size="14.00" fill="#000000">    </text>
<text text-anchor="start" x="1309.4332" y="-96.8" font-family="Arial" font-size="14.00" fill="#666666">[BASE TABLE]</text>
<text text-anchor="start" x="1245.2791" y="-82.4" font-family="Arial" font-size="14.00" fill="#333333">班</text>
<polygon fill="none" stroke="#000000" points="1093.5,-43 1093.5,-73 1409.5,-73 1409.5,-43 1093.5,-43"/>
<text text-anchor="start" x="1100.5" y="-54.4" font-family="Arial" font-size="14.00" fill="#000000">team_id    </text>
<text text-anchor="start" x="1184.493" y="-54.4" font-family="Arial" font-size="14.00" fill="#666666">[integer]</text>
<text text-anchor="start" x="1235.0624" y="-54.4" font-family="Arial" font-size="14.00" fill="#000000"> 班ID</text>
</g>
<!-- sampleschema.place_schedule_id&#45;&gt;sampleschema.teams -->
<g id="edge7" class="edge">
<title>sampleschema.place_schedule_id:team_id&#45;&gt;sampleschema.teams:team_id</title>
<path fill="none" stroke="#000000" d="M1258.4482,-253.1913C1270.9112,-244.0663 1261.9032,-214.873 1248.5,-198 1204.5107,-142.6229 1137.4893,-217.3771 1093.5,-162 1064.7499,-125.8071 1047.2778,-58 1093.5,-58"/>
<polygon fill="#000000" stroke="#000000" points="1258.1238,-253.2828 1247.2773,-251.6693 1253.3119,-254.6414 1248.5,-256 1248.5,-256 1248.5,-256 1253.3119,-254.6414 1249.7227,-260.3307 1258.1238,-253.2828 1258.1238,-253.2828"/>
</g>
<!-- sampleschema.affiliations -->
<g id="node10" class="node">
<title>sampleschema.affiliations</title>
<polygon fill="#efefef" stroke="transparent" points="1355.5,-574 1355.5,-620 1702.5,-620 1702.5,-574 1355.5,-574"/>
<polygon fill="none" stroke="#000000" points="1355.5,-574 1355.5,-620 1702.5,-620 1702.5,-574 1355.5,-574"/>
<text text-anchor="start" x="1362.2029" y="-597.8" font-family="Arial Bold" font-size="18.00" fill="#000000">sampleschema.affiliations</text>
<text text-anchor="start" x="1568.2291" y="-597.8" font-family="Arial" font-size="14.00" fill="#000000">    </text>
<text text-anchor="start" x="1602.4339" y="-597.8" font-family="Arial" font-size="14.00" fill="#666666">[BASE TABLE]</text>
<text text-anchor="start" x="1515.3822" y="-583.4" font-family="Arial" font-size="14.00" fill="#333333">所属</text>
<polygon fill="none" stroke="#000000" points="1355.5,-544 1355.5,-574 1702.5,-574 1702.5,-544 1355.5,-544"/>
<text text-anchor="start" x="1362.5" y="-555.4" font-family="Arial" font-size="14.00" fill="#000000">examinee_id    </text>
<text text-anchor="start" x="1476.0568" y="-555.4" font-family="Arial" font-size="14.00" fill="#666666">[integer]</text>
<text text-anchor="start" x="1526.6262" y="-555.4" font-family="Arial" font-size="14.00" fill="#000000"> 受診者ID</text>
<polygon fill="none" stroke="#000000" points="1355.5,-514 1355.5,-544 1702.5,-544 1702.5,-514 1355.5,-514"/>
<text text-anchor="start" x="1362.5" y="-525.4" font-family="Arial" font-size="14.00" fill="#000000">organization_id    </text>
<text text-anchor="start" x="1491.6192" y="-525.4" font-family="Arial" font-size="14.00" fill="#666666">[integer]</text>
<text text-anchor="start" x="1542.1886" y="-525.4" font-family="Arial" font-size="14.00" fill="#000000"> 団体ID</text>
</g>
<!-- sampleschema.affiliations&#45;&gt;sampleschema.examinees -->
<g id="edge9" class="edge">
<title>sampleschema.affiliations:examinee_id&#45;&gt;sampleschema.examinees:examinee_id</title>
<path fill="none" stroke="#000000" d="M1712.5076,-558.5961C1832.5986,-548.7213 1838.7889,-360.2889 1749.5,-271 1714.9303,-236.4303 1529.5,-222.1111 1529.5,-271"/>
<polygon fill="#000000" stroke="#000000" points="1712.4919,-558.5966 1702.3185,-554.5037 1707.4959,-558.7983 1702.5,-559 1702.5,-559 1702.5,-559 1707.4959,-558.7983 1702.6815,-563.4963 1712.4919,-558.5966 1712.4919,-558.5966"/>
</g>
</g>
</svg>
