<?xml version="1.0" encoding="UTF-8" standalone="no"?>
<!DOCTYPE svg PUBLIC "-//W3C//DTD SVG 1.1//EN"
 "http://www.w3.org/Graphics/SVG/1.1/DTD/svg11.dtd">
<!-- Generated by graphviz version 2.40.1 (20161225.0304)
 -->
<!-- Title: sampleschema.home_menu_groups Pages: 1 -->
<svg width="559pt" height="374pt"
 viewBox="0.00 0.00 558.69 374.00" xmlns="http://www.w3.org/2000/svg" xmlns:xlink="http://www.w3.org/1999/xlink">
<g id="graph0" class="graph" transform="scale(1 1) rotate(0) translate(4 370)">
<title>sampleschema.home_menu_groups</title>
<polygon fill="#ffffff" stroke="transparent" points="-4,4 -4,-370 554.6916,-370 554.6916,4 -4,4"/>
<!-- sampleschema.home_menu_groups -->
<g id="node1" class="node">
<title>sampleschema.home_menu_groups</title>
<polygon fill="#efefef" stroke="transparent" points="46,-76 46,-122 478,-122 478,-76 46,-76"/>
<polygon fill="none" stroke="#000000" points="46,-76 46,-122 478,-122 478,-76 46,-76"/>
<text text-anchor="start" x="52.6815" y="-99.8" font-family="Arial Bold" font-size="18.00" fill="#000000">sampleschema.home_menu_groups</text>
<text text-anchor="start" x="343.7505" y="-99.8" font-family="Arial" font-size="14.00" fill="#000000">    </text>
<text text-anchor="start" x="377.9553" y="-99.8" font-family="Arial" font-size="14.00" fill="#666666">[BASE TABLE]</text>
<text text-anchor="start" x="171.28" y="-85.4" font-family="Arial" font-size="14.00" fill="#333333">ホームメニューグループ</text>
<polygon fill="none" stroke="#000000" points="46,-46 46,-76 478,-76 478,-46 46,-46"/>
<text text-anchor="start" x="53" y="-57.4" font-family="Arial" font-size="14.00" fill="#000000">home_menu_group_id </text>
<text text-anchor="start" x="196.9354" y="-57.4" font-family="Arial" font-size="14.00" fill="#666666">[integer]</text>
<text text-anchor="start" x="247.5048" y="-57.4" font-family="Arial" font-size="14.00" fill="#000000"> ホームメニューグループID</text>
<polygon fill="none" stroke="#000000" stroke-width="3" points="44.5,-44.5 44.5,-123.5 479.5,-123.5 479.5,-44.5 44.5,-44.5"/>
</g>
<!-- sampleschema.home_menus -->
<g id="node2" class="node">
<title>sampleschema.home_menus</title>
<polygon fill="#efefef" stroke="transparent" points="43,-277 43,-323 481,-323 481,-277 43,-277"/>
<polygon fill="none" stroke="#000000" points="43,-277 43,-323 481,-323 481,-277 43,-277"/>
<text text-anchor="start" x="80.6931" y="-300.8" font-family="Arial Bold" font-size="18.00" fill="#000000">sampleschema.home_menus</text>
<text text-anchor="start" x="315.7389" y="-300.8" font-family="Arial" font-size="14.00" fill="#000000">    </text>
<text text-anchor="start" x="349.9437" y="-300.8" font-family="Arial" font-size="14.00" fill="#666666">[BASE TABLE]</text>
<text text-anchor="start" x="204.2003" y="-286.4" font-family="Arial" font-size="14.00" fill="#333333">ホームメニュー</text>
<polygon fill="none" stroke="#000000" points="43,-247 43,-277 481,-277 481,-247 43,-247"/>
<text text-anchor="start" x="49.9266" y="-258.4" font-family="Arial" font-size="14.00" fill="#000000">home_menu_group_id    </text>
<text text-anchor="start" x="224.1762" y="-258.4" font-family="Arial" font-size="14.00" fill="#666666">[integer]</text>
<text text-anchor="start" x="274.7456" y="-258.4" font-family="Arial" font-size="14.00" fill="#000000"> ホームメニューグループID</text>
</g>
<!-- sampleschema.home_menus&#45;&gt;sampleschema.home_menu_groups -->
<g id="edge1" class="edge">
<title>sampleschema.home_menus:home_menu_group_id&#45;&gt;sampleschema.home_menu_groups:home_menu_group_id</title>
<path fill="none" stroke="#000000" d="M262.4802,-236.9722C273.0013,-133.3909 453.5929,-262.7677 524,-168 556.3364,-124.4752 562.3409,-84.3409 524,-46 482.8307,-4.8307 262,12.2222 262,-46"/>
<polygon fill="#000000" stroke="#000000" points="262.4784,-237.0114 257.5051,-246.7847 262.2392,-242.0057 262,-247 262,-247 262,-247 262.2392,-242.0057 266.4949,-247.2153 262.4784,-237.0114 262.4784,-237.0114"/>
</g>
</g>
</svg>
