<?xml version="1.0" encoding="UTF-8" standalone="no"?>
<!DOCTYPE svg PUBLIC "-//W3C//DTD SVG 1.1//EN"
 "http://www.w3.org/Graphics/SVG/1.1/DTD/svg11.dtd">
<!-- Generated by graphviz version 2.40.1 (20161225.0304)
 -->
<!-- Title: sampleschema.teams Pages: 1 -->
<svg width="2127pt" height="890pt"
 viewBox="0.00 0.00 2127.00 890.00" xmlns="http://www.w3.org/2000/svg" xmlns:xlink="http://www.w3.org/1999/xlink">
<g id="graph0" class="graph" transform="scale(1 1) rotate(0) translate(4 886)">
<title>sampleschema.teams</title>
<polygon fill="#ffffff" stroke="transparent" points="-4,4 -4,-886 2123,-886 2123,4 -4,4"/>
<!-- sampleschema.teams -->
<g id="node1" class="node">
<title>sampleschema.teams</title>
<polygon fill="#efefef" stroke="transparent" points="422,-76 422,-122 738,-122 738,-76 422,-76"/>
<polygon fill="none" stroke="#000000" points="422,-76 422,-122 738,-122 738,-76 422,-76"/>
<text text-anchor="start" x="428.7036" y="-99.8" font-family="Arial Bold" font-size="18.00" fill="#000000">sampleschema.teams</text>
<text text-anchor="start" x="603.7284" y="-99.8" font-family="Arial" font-size="14.00" fill="#000000">    </text>
<text text-anchor="start" x="637.9332" y="-99.8" font-family="Arial" font-size="14.00" fill="#666666">[BASE TABLE]</text>
<text text-anchor="start" x="573.7791" y="-85.4" font-family="Arial" font-size="14.00" fill="#333333">班</text>
<polygon fill="none" stroke="#000000" points="422,-46 422,-76 738,-76 738,-46 422,-46"/>
<text text-anchor="start" x="429" y="-57.4" font-family="Arial" font-size="14.00" fill="#000000">team_id </text>
<text text-anchor="start" x="482.6788" y="-57.4" font-family="Arial" font-size="14.00" fill="#666666">[integer]</text>
<text text-anchor="start" x="533.2482" y="-57.4" font-family="Arial" font-size="14.00" fill="#000000"> 班ID</text>
<polygon fill="none" stroke="#000000" stroke-width="3" points="420.5,-44.5 420.5,-123.5 739.5,-123.5 739.5,-44.5 420.5,-44.5"/>
</g>
<!-- sampleschema.place_schedule_id -->
<g id="node2" class="node">
<title>sampleschema.place_schedule_id</title>
<polygon fill="#efefef" stroke="transparent" points="585,-337 585,-383 1001,-383 1001,-337 585,-337"/>
<polygon fill="none" stroke="#000000" points="585,-337 585,-383 1001,-383 1001,-337 585,-337"/>
<text text-anchor="start" x="591.6816" y="-360.8" font-family="Arial Bold" font-size="18.00" fill="#000000">sampleschema.place_schedule_id</text>
<text text-anchor="start" x="866.7504" y="-360.8" font-family="Arial" font-size="14.00" fill="#000000">    </text>
<text text-anchor="start" x="900.9552" y="-360.8" font-family="Arial" font-size="14.00" fill="#666666">[BASE TABLE]</text>
<text text-anchor="start" x="760.7097" y="-346.4" font-family="Arial" font-size="14.00" fill="#333333">会場日程</text>
<polygon fill="none" stroke="#000000" points="585,-307 585,-337 1001,-337 1001,-307 585,-307"/>
<text text-anchor="start" x="592" y="-318.4" font-family="Arial" font-size="14.00" fill="#000000">place_schedule_id    </text>
<text text-anchor="start" x="742.1332" y="-318.4" font-family="Arial" font-size="14.00" fill="#666666">[integer]</text>
<text text-anchor="start" x="792.7026" y="-318.4" font-family="Arial" font-size="14.00" fill="#000000"> 会場日程ID</text>
<polygon fill="none" stroke="#000000" points="585,-277 585,-307 1001,-307 1001,-277 585,-277"/>
<text text-anchor="start" x="592" y="-288.4" font-family="Arial" font-size="14.00" fill="#000000">place_id    </text>
<text text-anchor="start" x="678.331" y="-288.4" font-family="Arial" font-size="14.00" fill="#666666">[integer]</text>
<text text-anchor="start" x="728.9004" y="-288.4" font-family="Arial" font-size="14.00" fill="#000000"> 会場ID</text>
<polygon fill="none" stroke="#000000" points="585,-247 585,-277 1001,-277 1001,-247 585,-247"/>
<text text-anchor="start" x="592" y="-258.4" font-family="Arial" font-size="14.00" fill="#000000">team_id    </text>
<text text-anchor="start" x="675.993" y="-258.4" font-family="Arial" font-size="14.00" fill="#666666">[integer]</text>
<text text-anchor="start" x="726.5624" y="-258.4" font-family="Arial" font-size="14.00" fill="#000000"> 班ID</text>
</g>
<!-- sampleschema.place_schedule_id&#45;&gt;sampleschema.teams -->
<g id="edge1" class="edge">
<title>sampleschema.place_schedule_id:team_id&#45;&gt;sampleschema.teams:team_id</title>
<path fill="none" stroke="#000000" d="M575.0537,-259.1928C562.5968,-250.0727 571.6211,-220.8922 585,-204 628.3722,-149.2382 694.6278,-222.7618 738,-168 767.5258,-130.7206 785.5556,-61 738,-61"/>
<polygon fill="#000000" stroke="#000000" points="575.376,-259.2837 583.7777,-266.3308 580.188,-260.6418 585,-262 585,-262 585,-262 580.188,-260.6418 586.2223,-257.6692 575.376,-259.2837 575.376,-259.2837"/>
</g>
<!-- sampleschema.places -->
<g id="node9" class="node">
<title>sampleschema.places</title>
<polygon fill="#efefef" stroke="transparent" points="846,-76 846,-122 1165,-122 1165,-76 846,-76"/>
<polygon fill="none" stroke="#000000" points="846,-76 846,-122 1165,-122 1165,-76 846,-76"/>
<text text-anchor="start" x="852.7006" y="-99.8" font-family="Arial Bold" font-size="18.00" fill="#000000">sampleschema.places</text>
<text text-anchor="start" x="1030.7314" y="-99.8" font-family="Arial" font-size="14.00" fill="#000000">    </text>
<text text-anchor="start" x="1064.9362" y="-99.8" font-family="Arial" font-size="14.00" fill="#666666">[BASE TABLE]</text>
<text text-anchor="start" x="988.7735" y="-85.4" font-family="Arial" font-size="14.00" fill="#333333">会場</text>
<polygon fill="none" stroke="#000000" points="846,-46 846,-76 1165,-76 1165,-46 846,-46"/>
<text text-anchor="start" x="853" y="-57.4" font-family="Arial" font-size="14.00" fill="#000000">place_id    </text>
<text text-anchor="start" x="939.331" y="-57.4" font-family="Arial" font-size="14.00" fill="#666666">[integer]</text>
<text text-anchor="start" x="989.9004" y="-57.4" font-family="Arial" font-size="14.00" fill="#000000"> 会場ID</text>
</g>
<!-- sampleschema.place_schedule_id&#45;&gt;sampleschema.places -->
<g id="edge8" class="edge">
<title>sampleschema.place_schedule_id:place_id&#45;&gt;sampleschema.places:place_id</title>
<path fill="none" stroke="#000000" d="M1010.9504,-290.4425C1037.0831,-281.088 1022.6978,-231.8336 1001,-204 957.326,-147.9758 889.674,-221.0242 846,-165 817.5819,-128.5458 799.7778,-61 846,-61"/>
<polygon fill="#000000" stroke="#000000" points="1010.8797,-290.4535 1000.3041,-287.5541 1005.9399,-291.2268 1001,-292 1001,-292 1001,-292 1005.9399,-291.2268 1001.6959,-296.4459 1010.8797,-290.4535 1010.8797,-290.4535"/>
</g>
<!-- sampleschema.consult -->
<g id="node3" class="node">
<title>sampleschema.consult</title>
<polygon fill="#efefef" stroke="transparent" points="875,-595 875,-641 1199,-641 1199,-595 875,-595"/>
<polygon fill="none" stroke="#000000" points="875,-595 875,-641 1199,-641 1199,-595 875,-595"/>
<text text-anchor="start" x="881.6995" y="-618.8" font-family="Arial Bold" font-size="18.00" fill="#000000">sampleschema.consult</text>
<text text-anchor="start" x="1064.7325" y="-618.8" font-family="Arial" font-size="14.00" fill="#000000">    </text>
<text text-anchor="start" x="1098.9373" y="-618.8" font-family="Arial" font-size="14.00" fill="#666666">[BASE TABLE]</text>
<text text-anchor="start" x="1021.0512" y="-604.4" font-family="Arial" font-size="14.00" fill="#333333">受診</text>
<polygon fill="none" stroke="#000000" points="875,-565 875,-595 1199,-595 1199,-565 875,-565"/>
<text text-anchor="start" x="882" y="-576.4" font-family="Arial" font-size="14.00" fill="#000000">consult_id    </text>
<text text-anchor="start" x="979.2216" y="-576.4" font-family="Arial" font-size="14.00" fill="#666666">[integer]</text>
<text text-anchor="start" x="1029.791" y="-576.4" font-family="Arial" font-size="14.00" fill="#000000"> 受診ID</text>
<polygon fill="none" stroke="#000000" points="875,-535 875,-565 1199,-565 1199,-535 875,-535"/>
<text text-anchor="start" x="882" y="-546.4" font-family="Arial" font-size="14.00" fill="#000000">place_schedule_id    </text>
<text text-anchor="start" x="1032.1332" y="-546.4" font-family="Arial" font-size="14.00" fill="#666666">[integer]</text>
<text text-anchor="start" x="1082.7026" y="-546.4" font-family="Arial" font-size="14.00" fill="#000000"> 会場日程ID</text>
<polygon fill="none" stroke="#000000" points="875,-505 875,-535 1199,-535 1199,-505 875,-505"/>
<text text-anchor="start" x="882" y="-516.4" font-family="Arial" font-size="14.00" fill="#000000">examinee_id    </text>
<text text-anchor="start" x="995.5568" y="-516.4" font-family="Arial" font-size="14.00" fill="#666666">[integer]</text>
<text text-anchor="start" x="1046.1262" y="-516.4" font-family="Arial" font-size="14.00" fill="#000000"> 受診者ID</text>
</g>
<!-- sampleschema.consult&#45;&gt;sampleschema.place_schedule_id -->
<g id="edge2" class="edge">
<title>sampleschema.consult:place_schedule_id&#45;&gt;sampleschema.place_schedule_id:place_schedule_id</title>
<path fill="none" stroke="#000000" d="M865.0623,-548.4523C839.0039,-539.1547 853.7475,-490.1751 875,-462 910.0724,-415.5035 965.9276,-472.4965 1001,-426 1028.8348,-389.0986 1047.2222,-322 1001,-322"/>
<polygon fill="#000000" stroke="#000000" points="865.1191,-548.4611 874.3075,-554.4464 870.0596,-549.2305 875,-550 875,-550 875,-550 870.0596,-549.2305 875.6925,-545.5536 865.1191,-548.4611 865.1191,-548.4611"/>
</g>
<!-- sampleschema.examinees -->
<g id="node8" class="node">
<title>sampleschema.examinees</title>
<polygon fill="#efefef" stroke="transparent" points="1105,-307 1105,-353 1459,-353 1459,-307 1105,-307"/>
<polygon fill="none" stroke="#000000" points="1105,-307 1105,-353 1459,-353 1459,-307 1105,-307"/>
<text text-anchor="start" x="1111.6983" y="-330.8" font-family="Arial Bold" font-size="18.00" fill="#000000">sampleschema.examinees</text>
<text text-anchor="start" x="1324.7337" y="-330.8" font-family="Arial" font-size="14.00" fill="#000000">    </text>
<text text-anchor="start" x="1358.9385" y="-330.8" font-family="Arial" font-size="14.00" fill="#666666">[BASE TABLE]</text>
<text text-anchor="start" x="1258.2693" y="-316.4" font-family="Arial" font-size="14.00" fill="#333333">受診者</text>
<polygon fill="none" stroke="#000000" points="1105,-277 1105,-307 1459,-307 1459,-277 1105,-277"/>
<text text-anchor="start" x="1112" y="-288.4" font-family="Arial" font-size="14.00" fill="#000000">examinee_id    </text>
<text text-anchor="start" x="1225.5568" y="-288.4" font-family="Arial" font-size="14.00" fill="#666666">[integer]</text>
<text text-anchor="start" x="1276.1262" y="-288.4" font-family="Arial" font-size="14.00" fill="#000000"> 受診者ID</text>
</g>
<!-- sampleschema.consult&#45;&gt;sampleschema.examinees -->
<g id="edge7" class="edge">
<title>sampleschema.consult:examinee_id&#45;&gt;sampleschema.examinees:examinee_id</title>
<path fill="none" stroke="#000000" d="M1208.6684,-517.3727C1220.2741,-508.8037 1208.9377,-481.1203 1199,-462 1175.4581,-416.7053 1128.5419,-441.2947 1105,-396 1083.6833,-354.9867 1058.7778,-292 1105,-292"/>
<polygon fill="#000000" stroke="#000000" points="1208.6501,-517.3776 1197.8199,-515.6575 1203.825,-518.6888 1199,-520 1199,-520 1199,-520 1203.825,-518.6888 1200.1801,-524.3425 1208.6501,-517.3776 1208.6501,-517.3776"/>
</g>
<!-- sampleschema.exam_results -->
<g id="node4" class="node">
<title>sampleschema.exam_results</title>
<polygon fill="#efefef" stroke="transparent" points="43,-793 43,-839 417,-839 417,-793 43,-793"/>
<polygon fill="none" stroke="#000000" points="43,-793 43,-839 417,-839 417,-793 43,-793"/>
<text text-anchor="start" x="49.7011" y="-816.8" font-family="Arial Bold" font-size="18.00" fill="#000000">sampleschema.exam_results</text>
<text text-anchor="start" x="282.7309" y="-816.8" font-family="Arial" font-size="14.00" fill="#000000">    </text>
<text text-anchor="start" x="316.9357" y="-816.8" font-family="Arial" font-size="14.00" fill="#666666">[BASE TABLE]</text>
<text text-anchor="start" x="205.4874" y="-802.4" font-family="Arial" font-size="14.00" fill="#333333">検査結果</text>
<polygon fill="none" stroke="#000000" points="43,-763 43,-793 417,-793 417,-763 43,-763"/>
<text text-anchor="start" x="50" y="-774.4" font-family="Arial" font-size="14.00" fill="#000000">consult_id    </text>
<text text-anchor="start" x="147.2216" y="-774.4" font-family="Arial" font-size="14.00" fill="#666666">[integer]</text>
<text text-anchor="start" x="197.791" y="-774.4" font-family="Arial" font-size="14.00" fill="#000000"> 受診ID</text>
</g>
<!-- sampleschema.exam_results&#45;&gt;sampleschema.consult -->
<g id="edge3" class="edge">
<title>sampleschema.exam_results:consult_id&#45;&gt;sampleschema.consult:consult_id</title>
<path fill="none" stroke="#000000" d="M427.1171,-776.5893C449.5405,-769.45 443.4223,-736.977 469,-720 628.0288,-614.446 684.1288,-580 875,-580"/>
<polygon fill="#000000" stroke="#000000" points="426.9042,-776.6189 416.3785,-773.5431 421.9521,-777.3095 417,-778 417,-778 417,-778 421.9521,-777.3095 417.6215,-782.4569 426.9042,-776.6189 426.9042,-776.6189"/>
</g>
<!-- sampleschema.consult_export_histories -->
<g id="node5" class="node">
<title>sampleschema.consult_export_histories</title>
<polygon fill="#efefef" stroke="transparent" points="522,-793 522,-839 983,-839 983,-793 522,-793"/>
<polygon fill="none" stroke="#000000" points="522,-793 522,-839 983,-839 983,-793 522,-793"/>
<text text-anchor="start" x="528.6861" y="-816.8" font-family="Arial Bold" font-size="18.00" fill="#000000">sampleschema.consult_export_histories</text>
<text text-anchor="start" x="848.7459" y="-816.8" font-family="Arial" font-size="14.00" fill="#000000">    </text>
<text text-anchor="start" x="882.9507" y="-816.8" font-family="Arial" font-size="14.00" fill="#666666">[BASE TABLE]</text>
<text text-anchor="start" x="704.6543" y="-802.4" font-family="Arial" font-size="14.00" fill="#333333">受診_出力履歴</text>
<polygon fill="none" stroke="#000000" points="522,-763 522,-793 983,-793 983,-763 522,-763"/>
<text text-anchor="start" x="529" y="-774.4" font-family="Arial" font-size="14.00" fill="#000000">consult_id    </text>
<text text-anchor="start" x="626.2216" y="-774.4" font-family="Arial" font-size="14.00" fill="#666666">[integer]</text>
<text text-anchor="start" x="676.791" y="-774.4" font-family="Arial" font-size="14.00" fill="#000000"> 受診ID</text>
</g>
<!-- sampleschema.consult_export_histories&#45;&gt;sampleschema.consult -->
<g id="edge4" class="edge">
<title>sampleschema.consult_export_histories:consult_id&#45;&gt;sampleschema.consult:consult_id</title>
<path fill="none" stroke="#000000" d="M992.8833,-775.2404C1005.1476,-766.2659 995.5997,-737.4811 983,-720 953.4157,-678.954 904.5843,-725.046 875,-684 847.9734,-646.5026 828.7778,-580 875,-580"/>
<polygon fill="#000000" stroke="#000000" points="992.6316,-775.3106 981.7898,-773.6658 987.8158,-776.6553 983,-778 983,-778 983,-778 987.8158,-776.6553 984.2102,-782.3342 992.6316,-775.3106 992.6316,-775.3106"/>
</g>
<!-- sampleschema.exam_item_detail_orders -->
<g id="node6" class="node">
<title>sampleschema.exam_item_detail_orders</title>
<polygon fill="#efefef" stroke="transparent" points="1087,-793 1087,-839 1556,-839 1556,-793 1087,-793"/>
<polygon fill="none" stroke="#000000" points="1087,-793 1087,-839 1556,-839 1556,-793 1087,-793"/>
<text text-anchor="start" x="1093.6919" y="-816.8" font-family="Arial Bold" font-size="18.00" fill="#000000">sampleschema.exam_item_detail_orders</text>
<text text-anchor="start" x="1421.7401" y="-816.8" font-family="Arial" font-size="14.00" fill="#000000">    </text>
<text text-anchor="start" x="1455.9449" y="-816.8" font-family="Arial" font-size="14.00" fill="#666666">[BASE TABLE]</text>
<text text-anchor="start" x="1260.0344" y="-802.4" font-family="Arial" font-size="14.00" fill="#333333">検査項目明細依頼</text>
<polygon fill="none" stroke="#000000" points="1087,-763 1087,-793 1556,-793 1556,-763 1087,-763"/>
<text text-anchor="start" x="1094" y="-774.4" font-family="Arial" font-size="14.00" fill="#000000">consult_id    </text>
<text text-anchor="start" x="1191.2216" y="-774.4" font-family="Arial" font-size="14.00" fill="#666666">[integer]</text>
<text text-anchor="start" x="1241.791" y="-774.4" font-family="Arial" font-size="14.00" fill="#000000"> 受診ID</text>
</g>
<!-- sampleschema.exam_item_detail_orders&#45;&gt;sampleschema.consult -->
<g id="edge5" class="edge">
<title>sampleschema.exam_item_detail_orders:consult_id&#45;&gt;sampleschema.consult:consult_id</title>
<path fill="none" stroke="#000000" d="M1077.1091,-775.2349C1064.8217,-766.2436 1074.3065,-737.4132 1087,-720 1117.7998,-677.7484 1168.2002,-726.2516 1199,-684 1226.2278,-646.6484 1245.2222,-580 1199,-580"/>
<polygon fill="#000000" stroke="#000000" points="1077.3693,-775.3075 1085.7884,-782.3338 1082.1846,-776.6538 1087,-778 1087,-778 1087,-778 1082.1846,-776.6538 1088.2116,-773.6662 1077.3693,-775.3075 1077.3693,-775.3075"/>
</g>
<!-- sampleschema.exam_item_orders -->
<g id="node7" class="node">
<title>sampleschema.exam_item_orders</title>
<polygon fill="#efefef" stroke="transparent" points="1660,-793 1660,-839 2076,-839 2076,-793 1660,-793"/>
<polygon fill="none" stroke="#000000" points="1660,-793 1660,-839 2076,-839 2076,-793 1660,-793"/>
<text text-anchor="start" x="1666.6996" y="-816.8" font-family="Arial Bold" font-size="18.00" fill="#000000">sampleschema.exam_item_orders</text>
<text text-anchor="start" x="1941.7324" y="-816.8" font-family="Arial" font-size="14.00" fill="#000000">    </text>
<text text-anchor="start" x="1975.9372" y="-816.8" font-family="Arial" font-size="14.00" fill="#666666">[BASE TABLE]</text>
<text text-anchor="start" x="1818.2062" y="-802.4" font-family="Arial" font-size="14.00" fill="#333333">検査項目依頼</text>
<polygon fill="none" stroke="#000000" points="1660,-763 1660,-793 2076,-793 2076,-763 1660,-763"/>
<text text-anchor="start" x="1667" y="-774.4" font-family="Arial" font-size="14.00" fill="#000000">consult_id    </text>
<text text-anchor="start" x="1764.2216" y="-774.4" font-family="Arial" font-size="14.00" fill="#666666">[integer]</text>
<text text-anchor="start" x="1814.791" y="-774.4" font-family="Arial" font-size="14.00" fill="#000000"> 受診ID</text>
</g>
<!-- sampleschema.exam_item_orders&#45;&gt;sampleschema.consult -->
<g id="edge6" class="edge">
<title>sampleschema.exam_item_orders:consult_id&#45;&gt;sampleschema.consult:consult_id</title>
<path fill="none" stroke="#000000" d="M1649.8837,-776.5882C1627.4638,-769.4435 1633.5969,-736.948 1608,-720 1447.8005,-613.9298 1391.1322,-580 1199,-580"/>
<polygon fill="#000000" stroke="#000000" points="1650.096,-776.6178 1659.378,-782.4568 1655.048,-777.3089 1660,-778 1660,-778 1660,-778 1655.048,-777.3089 1660.622,-773.5432 1650.096,-776.6178 1650.096,-776.6178"/>
</g>
</g>
</svg>
